<svg width="24" height="24" viewBox="0 0 24 24" fill="none" xmlns="http://www.w3.org/2000/svg">
<rect width="24" height="24" fill="white"/>
<path fill-rule="evenodd" clip-rule="evenodd" d="M18.502 4.64202C17.6459 3.786 16.2581 3.78599 15.402 4.64202L5.05759 14.9865C4.75159 15.2925 4.54301 15.6822 4.45814 16.1065L4.02919 18.2513C3.82469 19.2738 4.72621 20.1753 5.74873 19.9708L7.89347 19.5418C8.31782 19.457 8.70756 19.2484 9.01356 18.9424L19.358 8.59798C20.214 7.74195 20.214 6.35407 19.358 5.49804L18.502 4.64202ZM16.4353 5.67533C16.7207 5.38999 17.1833 5.38999 17.4687 5.67533L18.3247 6.53136C18.6101 6.81669 18.6101 7.27932 18.3247 7.56467L16.3726 9.5167L14.4833 7.62736L16.4353 5.67533ZM13.45 8.66067L6.0909 16.0198C5.9889 16.1218 5.91938 16.2517 5.89109 16.3931L5.46214 18.5378L7.60688 18.1089C7.74833 18.0806 7.87825 18.0111 7.98025 17.9091L15.3393 10.55L13.45 8.66067Z" fill="white"/>
</svg>
